<?xml version="1.0" standalone="no"?>
<!DOCTYPE svg PUBLIC "-//W3C//DTD SVG 20010904//EN"
 "http://www.w3.org/TR/2001/REC-SVG-20010904/DTD/svg10.dtd">
<svg version="1.0" xmlns="http://www.w3.org/2000/svg"
 width="4166.000000pt" height="4165.000000pt" viewBox="0 0 4166.000000 4165.000000"
 preserveAspectRatio="xMidYMid meet">
<metadata>
Created by potrace 1.16, written by Peter Selinger 2001-2019
</metadata>
<g transform="translate(0.000000,4165.000000) scale(0.100000,-0.100000)"
fill="#000000" stroke="none">
<path d="M37420 28924 c-584 -78 -767 -122 -1080 -261 -74 -33 -175 -77 -225
-98 -198 -81 -724 -325 -1208 -559 -175 -85 -206 -96 -278 -96 -66 0 -95 10
-160 57 -98 69 -152 87 -281 91 -131 5 -203 -7 -401 -64 -151 -43 -215 -73
-261 -124 -54 -60 -67 -118 -75 -330 -9 -254 -20 -273 -196 -356 -160 -74
-195 -84 -309 -84 -76 0 -111 -5 -141 -19 -80 -36 -134 -129 -119 -206 3 -19
28 -66 54 -103 78 -111 109 -182 124 -282 7 -49 19 -97 26 -105 7 -9 58 -43
112 -77 123 -75 142 -97 135 -158 -3 -25 -124 -499 -267 -1055 -454 -1751
-492 -1922 -749 -3335 -153 -842 -194 -1083 -256 -1523 -36 -252 -78 -546 -95
-653 -17 -107 -28 -205 -25 -217 4 -12 24 -47 45 -77 82 -120 118 -220 170
-476 22 -107 46 -207 54 -222 58 -111 400 -287 685 -353 127 -30 368 -37 501
-15 112 19 379 90 480 129 95 36 348 156 480 227 63 35 192 103 285 152 238
126 344 198 451 311 65 68 102 118 138 185 44 83 57 97 131 154 196 150 583
529 796 780 139 164 282 355 384 513 154 238 261 390 450 635 149 193 165 217
165 254 0 64 -15 71 -139 69 -267 -5 -439 -62 -691 -230 -538 -358 -987 -701
-1428 -1095 -379 -338 -679 -551 -1027 -729 -324 -167 -406 -185 -450 -99 -29
57 -19 170 56 604 158 922 402 2110 452 2200 21 37 34 45 237 136 279 124
1050 516 1305 662 364 209 524 285 680 324 128 31 166 54 277 166 108 108 188
167 331 243 61 33 88 53 96 73 39 99 25 111 -155 128 -432 40 -481 34 -974
-128 -251 -83 -345 -123 -694 -302 -166 -84 -362 -184 -436 -222 -74 -37 -168
-88 -208 -112 -40 -24 -91 -46 -113 -49 -34 -5 -44 -2 -70 23 -34 32 -53 92
-44 137 3 18 19 77 35 132 31 108 410 1513 621 2305 113 423 136 498 179 585
89 180 175 263 380 362 74 36 169 85 211 109 42 24 252 133 465 242 531 272
681 359 955 552 85 60 206 132 320 191 217 111 269 156 366 314 34 55 79 118
101 140 22 22 65 65 96 95 97 95 136 198 136 363 0 99 -14 143 -55 175 -36 29
-118 28 -355 -4z"/>
<path d="M30120 27579 c-218 -24 -468 -158 -676 -364 -138 -137 -177 -249
-205 -590 -14 -176 -7 -441 16 -595 51 -341 187 -729 568 -1620 255 -598 307
-737 307 -826 0 -93 -40 -144 -245 -312 -22 -18 -35 -32 -30 -31 42 6 85 -28
85 -66 0 -24 -73 -126 -270 -375 -119 -150 -192 -261 -337 -510 -332 -569
-519 -941 -662 -1310 -74 -193 -91 -228 -126 -258 -29 -26 -30 -30 -27 -97 3
-79 -16 -135 -55 -160 -22 -15 -26 -15 -49 0 -13 8 -24 23 -24 32 0 35 -21 -5
-70 -135 -63 -168 -124 -374 -199 -677 -70 -285 -91 -401 -100 -555 -13 -245
11 -401 100 -638 29 -75 58 -159 65 -187 19 -68 17 -190 -2 -255 -31 -105 -17
-160 82 -329 l49 -85 2 -114 c3 -137 18 -189 74 -257 23 -28 93 -116 156 -197
165 -213 200 -249 280 -286 108 -49 213 -73 353 -79 410 -18 753 179 919 528
26 54 59 153 90 275 62 237 88 307 153 409 128 201 217 394 418 905 70 179
155 386 190 460 157 343 235 551 295 790 57 225 75 361 85 625 5 139 17 302
29 387 43 307 50 642 21 959 -5 57 -19 244 -30 414 -22 337 -40 501 -70 656
-36 187 -154 601 -264 924 -131 388 -207 564 -459 1070 -243 488 -368 765
-483 1073 -30 79 -31 160 -4 221 29 63 141 169 226 213 104 55 168 69 359 78
190 10 261 22 479 85 83 24 170 48 194 55 47 12 105 58 128 101 7 15 14 48 14
72 0 40 -8 55 -71 138 -91 121 -121 151 -195 205 -91 65 -138 81 -379 129
-121 24 -266 55 -322 69 -86 22 -263 48 -298 45 -5 -1 -44 -5 -85 -10z m292
-5491 c21 -42 22 -56 26 -429 5 -390 -4 -612 -34 -894 -70 -657 -236 -1319
-484 -1930 -83 -204 -191 -405 -347 -647 -48 -75 -111 -133 -151 -141 -35 -7
-74 12 -88 43 -15 32 -41 230 -55 432 -20 262 8 682 67 1028 62 364 140 642
313 1120 25 70 31 100 31 173 0 100 -11 71 171 447 192 398 372 727 441 805
44 51 81 49 110 -7z"/>
<path d="M27860 26383 c-19 -2 -107 -15 -195 -29 -481 -77 -879 -240 -1184
-484 -242 -194 -721 -723 -1060 -1170 -82 -107 -196 -256 -255 -330 -143 -180
-233 -315 -312 -462 -36 -67 -83 -147 -104 -177 -36 -51 -323 -401 -326 -397
-3 3 36 432 51 561 9 77 27 196 41 265 32 157 138 580 210 838 67 241 80 326
65 428 -29 195 -116 325 -296 439 -72 46 -115 52 -197 31 -35 -9 -120 -23
-190 -31 -259 -31 -401 -120 -488 -308 -76 -165 -234 -661 -316 -992 -35 -141
-196 -950 -233 -1171 -58 -340 -238 -1586 -310 -2139 -96 -733 -291 -2661
-350 -3455 -47 -633 -48 -651 -15 -1120 20 -278 29 -307 123 -401 70 -69 138
-109 187 -109 45 1 99 30 220 119 126 92 151 122 193 239 36 100 84 180 154
259 29 33 58 73 64 89 6 16 29 79 52 139 54 145 75 232 106 455 35 253 43 296
150 780 129 580 165 784 180 1021 7 103 15 130 58 204 49 83 104 216 173 419
36 105 84 237 106 293 44 114 116 223 147 223 33 0 80 -59 137 -171 40 -81 68
-123 110 -164 152 -150 423 -197 664 -116 134 45 216 97 341 219 283 273 552
633 807 1079 123 216 189 312 298 434 313 348 507 653 668 1048 102 248 226
464 369 639 78 96 107 150 146 270 16 48 94 272 174 497 165 466 202 582 251
782 98 401 122 786 63 1014 -59 229 -163 377 -294 423 -44 15 -132 24 -183 19z
m-619 -1092 c23 -18 24 -25 23 -128 -1 -79 -7 -126 -22 -173 -195 -616 -288
-943 -333 -1175 -22 -113 -44 -191 -75 -266 -60 -147 -115 -296 -274 -739
-359 -1005 -497 -1294 -777 -1635 -188 -229 -448 -480 -529 -511 -89 -34 -161
10 -223 138 -32 66 -37 102 -61 428 -13 171 -36 243 -100 310 -43 45 -50 58
-50 92 0 127 438 1110 755 1693 312 574 683 1097 1099 1547 213 232 462 438
527 438 9 0 27 -9 40 -19z"/>
<path d="M22575 25285 c-38 -8 -234 -41 -435 -75 -201 -34 -829 -153 -1395
-265 -567 -112 -1071 -209 -1120 -216 -54 -7 -136 -9 -205 -6 -133 7 -159 0
-250 -74 -108 -87 -130 -97 -365 -159 -108 -28 -216 -68 -430 -160 -99 -42
-236 -98 -305 -125 -114 -44 -130 -54 -185 -109 -93 -94 -155 -227 -214 -464
-61 -241 -87 -445 -72 -556 32 -225 159 -408 349 -502 71 -36 84 -39 162 -39
116 0 140 15 393 245 224 204 266 234 376 274 89 32 122 33 157 3 23 -20 27
-33 35 -113 18 -197 29 -593 29 -1049 0 -1152 39 -2557 86 -3080 34 -390 93
-686 189 -951 22 -60 39 -132 46 -191 15 -125 6 -390 -15 -468 -53 -193 -184
-334 -451 -485 -60 -34 -123 -74 -138 -88 -44 -41 -67 -94 -67 -154 0 -68 31
-123 137 -240 272 -303 430 -341 779 -192 348 148 731 410 1247 852 165 142
187 165 187 197 0 37 46 129 86 174 45 50 162 132 372 260 142 87 162 121 97
163 -25 17 -41 38 -55 76 -38 101 -25 141 77 228 66 56 67 57 33 50 -75 -15
-186 -19 -208 -7 -26 14 -28 46 -8 94 l13 32 -82 -6 c-45 -4 -106 -14 -136
-24 -103 -34 -279 -132 -494 -275 -138 -92 -198 -121 -265 -127 l-57 -5 -27
46 c-15 25 -36 81 -48 123 -19 70 -21 100 -18 288 6 358 5 390 -8 775 -14 405
-6 927 23 1515 35 690 38 849 26 1266 -15 544 -47 1178 -72 1433 -21 224 -19
254 24 294 26 24 109 51 252 82 55 11 152 34 215 50 63 16 266 61 450 100 818
174 1081 262 1319 440 104 79 182 161 300 320 160 214 208 322 216 490 3 47 7
112 11 145 l6 60 -55 53 c-59 55 -98 76 -127 67 -10 -3 -75 1 -143 10 -144 17
-148 17 -242 0z"/>
<path d="M16145 23869 c-16 -5 -93 -21 -170 -34 -77 -14 -178 -32 -225 -41
-246 -44 -444 -134 -546 -247 -84 -92 -144 -257 -144 -391 0 -79 -27 -220 -59
-311 -16 -44 -86 -233 -156 -420 -434 -1165 -1105 -3183 -1320 -3967 -162
-592 -228 -1018 -229 -1473 -1 -356 26 -542 115 -802 134 -388 407 -715 750
-898 206 -109 370 -136 581 -95 57 11 166 25 243 30 219 16 329 39 656 141 90
28 225 66 299 85 101 25 154 45 210 77 41 24 100 55 130 69 30 13 113 57 184
97 417 234 852 577 1311 1036 210 209 303 315 439 498 81 109 99 127 166 167
105 63 224 181 348 345 58 77 139 175 179 217 76 80 86 105 58 145 -23 32 -80
47 -185 47 -137 0 -210 -21 -515 -151 -568 -242 -1115 -531 -1965 -1038 -442
-264 -1045 -614 -1115 -646 -91 -44 -193 -63 -296 -56 -159 10 -246 53 -289
141 -50 104 -47 431 6 749 44 259 193 829 339 1298 133 424 768 2203 1078
3019 126 331 208 581 327 989 49 168 112 371 140 451 85 238 91 265 92 375 1
122 -19 210 -74 322 -50 104 -143 207 -226 251 -62 33 -86 37 -137 21z"/>
<path d="M12110 23653 c-14 -2 -60 -10 -102 -19 -237 -45 -479 -176 -592 -320
-23 -29 -83 -104 -133 -167 -230 -287 -606 -940 -842 -1462 -350 -775 -776
-2074 -1066 -3250 -188 -764 -223 -983 -232 -1475 -16 -887 84 -1593 314
-2215 102 -276 283 -598 437 -778 117 -136 215 -200 402 -263 93 -31 126 -38
225 -42 330 -14 683 129 949 384 146 140 201 226 375 579 85 171 186 364 226
430 80 132 109 204 109 265 0 89 31 181 121 356 96 187 117 249 118 342 0 76
10 112 67 248 135 322 167 615 100 918 -34 155 -55 575 -30 610 22 31 17 59
-17 102 -17 22 -35 50 -41 64 -8 23 -13 15 -47 -75 -21 -55 -77 -190 -123
-300 -47 -110 -102 -254 -123 -320 -161 -521 -225 -693 -366 -980 -200 -408
-447 -781 -757 -1142 -270 -314 -372 -403 -447 -389 -67 13 -85 57 -139 335
-71 364 -91 609 -83 1051 9 520 53 857 197 1505 27 121 76 348 110 505 168
779 321 1254 847 2625 331 861 363 954 418 1229 32 157 60 236 136 388 64 129
219 384 261 429 29 32 54 36 84 15 17 -13 20 -32 25 -198 4 -140 10 -200 26
-258 46 -167 57 -264 57 -500 1 -301 -25 -451 -136 -805 -135 -430 -166 -597
-177 -945 -7 -218 -10 -252 -30 -309 -35 -96 -20 -151 53 -188 39 -20 88 -19
122 3 35 24 209 240 287 359 109 167 139 238 192 465 18 80 67 262 108 405
194 669 265 1073 286 1630 19 479 -21 648 -195 822 -75 75 -93 87 -220 148
-77 37 -184 89 -239 115 -126 61 -217 80 -372 79 -65 -1 -129 -4 -143 -6z"/>
<path d="M9615 23424 c-55 -8 -183 -26 -285 -40 -324 -44 -552 -98 -734 -174
-396 -165 -778 -336 -1246 -560 -517 -247 -506 -242 -581 -248 -78 -5 -111 5
-180 55 -97 69 -152 87 -281 91 -131 5 -203 -7 -401 -64 -151 -43 -215 -73
-261 -124 -54 -60 -67 -118 -75 -330 -9 -255 -20 -274 -206 -360 -151 -70
-187 -80 -299 -80 -144 -1 -210 -36 -251 -134 -25 -60 -13 -111 44 -193 79
-112 110 -183 125 -283 7 -49 19 -97 26 -105 7 -9 58 -43 112 -77 123 -75 142
-97 134 -158 -3 -25 -129 -524 -280 -1109 -446 -1724 -485 -1895 -750 -3361
-149 -821 -177 -989 -240 -1439 -36 -252 -79 -545 -96 -652 -17 -107 -28 -205
-25 -219 4 -14 23 -50 44 -80 82 -118 118 -219 171 -476 22 -107 46 -207 54
-222 59 -111 399 -287 685 -353 125 -29 375 -37 501 -15 114 20 365 87 469
125 100 37 333 147 474 223 62 33 193 103 292 155 232 123 332 188 429 282 82
80 131 145 185 248 27 50 49 74 116 125 113 86 354 309 528 488 253 260 454
507 624 764 214 326 277 415 511 720 67 87 125 169 128 181 10 42 0 79 -26 93
-47 25 -325 -5 -461 -49 -120 -39 -205 -86 -421 -232 -549 -370 -933 -668
-1390 -1077 -342 -307 -674 -537 -1033 -716 -277 -138 -352 -153 -395 -81 -35
58 -27 161 45 583 120 692 235 1282 366 1873 67 300 86 368 113 390 6 5 99 48
206 96 274 121 1069 526 1353 689 344 197 453 248 654 306 57 17 118 37 135
46 16 8 76 61 131 117 107 107 188 167 330 242 82 44 86 48 102 95 9 27 14 54
10 60 -17 27 -72 38 -281 55 -330 27 -394 17 -849 -132 -93 -30 -219 -75 -280
-100 -125 -51 -962 -473 -1073 -541 -46 -28 -89 -46 -115 -49 -39 -5 -46 -2
-75 31 -42 49 -48 88 -24 177 19 76 140 522 377 1399 74 272 193 716 264 985
115 429 137 503 180 590 90 180 176 263 381 362 74 36 170 86 214 110 43 25
249 132 457 238 528 271 696 367 954 552 74 52 198 128 288 174 271 140 298
163 408 342 33 53 78 114 99 135 126 122 152 151 174 193 36 64 56 159 56 262
0 99 -14 143 -55 175 -23 19 -40 22 -104 21 -42 -1 -121 -8 -176 -15z"/>
</g>
</svg>
